<mxfile host="app.diagrams.net" modified="2023-02-05T13:50:43.435Z" agent="5.0 (X11; Linux x86_64) AppleWebKit/537.36 (KHTML, like Gecko) Chrome/109.0.0.0 Safari/537.36" etag="FWHRsrl_YTvN5Cq7g6Ol" version="20.8.16" type="github">
  <diagram id="C5RBs43oDa-KdzZeNtuy" name="Page-1">
    <mxGraphModel dx="958" dy="1703" grid="1" gridSize="10" guides="1" tooltips="1" connect="1" arrows="1" fold="1" page="1" pageScale="1" pageWidth="827" pageHeight="1169" math="0" shadow="0">
      <root>
        <mxCell id="WIyWlLk6GJQsqaUBKTNV-0" />
        <mxCell id="WIyWlLk6GJQsqaUBKTNV-1" parent="WIyWlLk6GJQsqaUBKTNV-0" />
        <mxCell id="Tnt2tdOCs1esu0Zzdq4X-2" value="" style="edgeStyle=orthogonalEdgeStyle;rounded=0;orthogonalLoop=1;jettySize=auto;html=1;" parent="WIyWlLk6GJQsqaUBKTNV-1" source="Tnt2tdOCs1esu0Zzdq4X-0" target="Tnt2tdOCs1esu0Zzdq4X-1" edge="1">
          <mxGeometry relative="1" as="geometry" />
        </mxCell>
        <mxCell id="Tnt2tdOCs1esu0Zzdq4X-0" value="int find_min(int ara [ ], int n;" style="rounded=0;whiteSpace=wrap;html=1;" parent="WIyWlLk6GJQsqaUBKTNV-1" vertex="1">
          <mxGeometry x="140" y="-230" width="120" height="60" as="geometry" />
        </mxCell>
        <mxCell id="Tnt2tdOCs1esu0Zzdq4X-4" value="" style="edgeStyle=orthogonalEdgeStyle;rounded=0;orthogonalLoop=1;jettySize=auto;html=1;" parent="WIyWlLk6GJQsqaUBKTNV-1" source="Tnt2tdOCs1esu0Zzdq4X-1" target="Tnt2tdOCs1esu0Zzdq4X-3" edge="1">
          <mxGeometry relative="1" as="geometry" />
        </mxCell>
        <mxCell id="Tnt2tdOCs1esu0Zzdq4X-1" value="start" style="ellipse;whiteSpace=wrap;html=1;rounded=0;" parent="WIyWlLk6GJQsqaUBKTNV-1" vertex="1">
          <mxGeometry x="160" y="-140" width="80" height="40" as="geometry" />
        </mxCell>
        <mxCell id="Tnt2tdOCs1esu0Zzdq4X-6" value="" style="edgeStyle=orthogonalEdgeStyle;rounded=0;orthogonalLoop=1;jettySize=auto;html=1;" parent="WIyWlLk6GJQsqaUBKTNV-1" source="Tnt2tdOCs1esu0Zzdq4X-3" target="Tnt2tdOCs1esu0Zzdq4X-5" edge="1">
          <mxGeometry relative="1" as="geometry" />
        </mxCell>
        <mxCell id="Tnt2tdOCs1esu0Zzdq4X-3" value="int ara[ ] = {10, 20, 30, 40, 50};&lt;br&gt;int n = 5&lt;br&gt;int min = find_max(ara, n)" style="whiteSpace=wrap;html=1;rounded=0;" parent="WIyWlLk6GJQsqaUBKTNV-1" vertex="1">
          <mxGeometry x="140" y="-70" width="120" height="80" as="geometry" />
        </mxCell>
        <mxCell id="Tnt2tdOCs1esu0Zzdq4X-14" value="" style="edgeStyle=orthogonalEdgeStyle;rounded=0;orthogonalLoop=1;jettySize=auto;html=1;" parent="WIyWlLk6GJQsqaUBKTNV-1" source="Tnt2tdOCs1esu0Zzdq4X-5" target="Tnt2tdOCs1esu0Zzdq4X-13" edge="1">
          <mxGeometry relative="1" as="geometry" />
        </mxCell>
        <mxCell id="Tnt2tdOCs1esu0Zzdq4X-5" value="printf min" style="shape=parallelogram;perimeter=parallelogramPerimeter;whiteSpace=wrap;html=1;fixedSize=1;rounded=0;" parent="WIyWlLk6GJQsqaUBKTNV-1" vertex="1">
          <mxGeometry x="140" y="40" width="120" height="60" as="geometry" />
        </mxCell>
        <mxCell id="Tnt2tdOCs1esu0Zzdq4X-10" value="" style="edgeStyle=orthogonalEdgeStyle;rounded=0;orthogonalLoop=1;jettySize=auto;html=1;" parent="WIyWlLk6GJQsqaUBKTNV-1" source="Tnt2tdOCs1esu0Zzdq4X-7" target="Tnt2tdOCs1esu0Zzdq4X-9" edge="1">
          <mxGeometry relative="1" as="geometry" />
        </mxCell>
        <mxCell id="Tnt2tdOCs1esu0Zzdq4X-25" style="edgeStyle=orthogonalEdgeStyle;rounded=0;orthogonalLoop=1;jettySize=auto;html=1;exitX=0;exitY=0.5;exitDx=0;exitDy=0;entryX=1;entryY=0.5;entryDx=0;entryDy=0;" parent="WIyWlLk6GJQsqaUBKTNV-1" source="Tnt2tdOCs1esu0Zzdq4X-7" target="Tnt2tdOCs1esu0Zzdq4X-3" edge="1">
          <mxGeometry relative="1" as="geometry" />
        </mxCell>
        <mxCell id="Tnt2tdOCs1esu0Zzdq4X-7" value="int find_min" style="rounded=0;whiteSpace=wrap;html=1;" parent="WIyWlLk6GJQsqaUBKTNV-1" vertex="1">
          <mxGeometry x="430" y="-230" width="130" height="60" as="geometry" />
        </mxCell>
        <mxCell id="Tnt2tdOCs1esu0Zzdq4X-12" value="" style="edgeStyle=orthogonalEdgeStyle;rounded=0;orthogonalLoop=1;jettySize=auto;html=1;" parent="WIyWlLk6GJQsqaUBKTNV-1" source="Tnt2tdOCs1esu0Zzdq4X-9" target="Tnt2tdOCs1esu0Zzdq4X-11" edge="1">
          <mxGeometry relative="1" as="geometry" />
        </mxCell>
        <mxCell id="Tnt2tdOCs1esu0Zzdq4X-9" value="int min= (ara[0])&lt;br&gt;int i = 0" style="whiteSpace=wrap;html=1;rounded=0;" parent="WIyWlLk6GJQsqaUBKTNV-1" vertex="1">
          <mxGeometry x="435" y="-150" width="120" height="60" as="geometry" />
        </mxCell>
        <mxCell id="Tnt2tdOCs1esu0Zzdq4X-16" style="edgeStyle=orthogonalEdgeStyle;rounded=0;orthogonalLoop=1;jettySize=auto;html=1;exitX=1;exitY=0.5;exitDx=0;exitDy=0;" parent="WIyWlLk6GJQsqaUBKTNV-1" source="Tnt2tdOCs1esu0Zzdq4X-11" edge="1">
          <mxGeometry relative="1" as="geometry">
            <mxPoint x="610" y="50" as="targetPoint" />
          </mxGeometry>
        </mxCell>
        <mxCell id="DfDZ5fbvpLFeXreUArm3-2" value="" style="edgeStyle=orthogonalEdgeStyle;rounded=0;orthogonalLoop=1;jettySize=auto;html=1;" edge="1" parent="WIyWlLk6GJQsqaUBKTNV-1" source="Tnt2tdOCs1esu0Zzdq4X-11" target="DfDZ5fbvpLFeXreUArm3-1">
          <mxGeometry relative="1" as="geometry" />
        </mxCell>
        <mxCell id="Tnt2tdOCs1esu0Zzdq4X-11" value="i &amp;lt; n" style="rhombus;whiteSpace=wrap;html=1;rounded=0;" parent="WIyWlLk6GJQsqaUBKTNV-1" vertex="1">
          <mxGeometry x="510" y="-60" width="110" height="80" as="geometry" />
        </mxCell>
        <mxCell id="Tnt2tdOCs1esu0Zzdq4X-13" value="end" style="ellipse;whiteSpace=wrap;html=1;rounded=0;" parent="WIyWlLk6GJQsqaUBKTNV-1" vertex="1">
          <mxGeometry x="160" y="140" width="80" height="50" as="geometry" />
        </mxCell>
        <mxCell id="Tnt2tdOCs1esu0Zzdq4X-30" style="edgeStyle=orthogonalEdgeStyle;rounded=0;orthogonalLoop=1;jettySize=auto;html=1;" parent="WIyWlLk6GJQsqaUBKTNV-1" source="Tnt2tdOCs1esu0Zzdq4X-17" edge="1">
          <mxGeometry relative="1" as="geometry">
            <mxPoint x="700" y="140" as="targetPoint" />
            <Array as="points">
              <mxPoint x="700" y="90" />
            </Array>
          </mxGeometry>
        </mxCell>
        <mxCell id="DfDZ5fbvpLFeXreUArm3-0" style="edgeStyle=orthogonalEdgeStyle;rounded=0;orthogonalLoop=1;jettySize=auto;html=1;exitX=0;exitY=0.5;exitDx=0;exitDy=0;entryX=0.75;entryY=0;entryDx=0;entryDy=0;" edge="1" parent="WIyWlLk6GJQsqaUBKTNV-1" source="Tnt2tdOCs1esu0Zzdq4X-17" target="Tnt2tdOCs1esu0Zzdq4X-20">
          <mxGeometry relative="1" as="geometry" />
        </mxCell>
        <mxCell id="Tnt2tdOCs1esu0Zzdq4X-17" value="ara[ i ] &amp;gt; min" style="rhombus;whiteSpace=wrap;html=1;" parent="WIyWlLk6GJQsqaUBKTNV-1" vertex="1">
          <mxGeometry x="560" y="50" width="100" height="80" as="geometry" />
        </mxCell>
        <mxCell id="Tnt2tdOCs1esu0Zzdq4X-27" style="edgeStyle=orthogonalEdgeStyle;rounded=0;orthogonalLoop=1;jettySize=auto;html=1;exitX=0;exitY=0.5;exitDx=0;exitDy=0;entryX=0.25;entryY=1;entryDx=0;entryDy=0;" parent="WIyWlLk6GJQsqaUBKTNV-1" source="Tnt2tdOCs1esu0Zzdq4X-20" target="Tnt2tdOCs1esu0Zzdq4X-22" edge="1">
          <mxGeometry relative="1" as="geometry" />
        </mxCell>
        <mxCell id="Tnt2tdOCs1esu0Zzdq4X-20" value="&lt;br&gt;return min" style="rounded=1;whiteSpace=wrap;html=1;" parent="WIyWlLk6GJQsqaUBKTNV-1" vertex="1">
          <mxGeometry x="475" y="145" width="80" height="40" as="geometry" />
        </mxCell>
        <mxCell id="DfDZ5fbvpLFeXreUArm3-4" style="edgeStyle=orthogonalEdgeStyle;rounded=0;orthogonalLoop=1;jettySize=auto;html=1;" edge="1" parent="WIyWlLk6GJQsqaUBKTNV-1" source="Tnt2tdOCs1esu0Zzdq4X-22" target="Tnt2tdOCs1esu0Zzdq4X-11">
          <mxGeometry relative="1" as="geometry" />
        </mxCell>
        <mxCell id="Tnt2tdOCs1esu0Zzdq4X-22" value="i++" style="rounded=1;whiteSpace=wrap;html=1;" parent="WIyWlLk6GJQsqaUBKTNV-1" vertex="1">
          <mxGeometry x="366" y="80" width="64" height="27.5" as="geometry" />
        </mxCell>
        <mxCell id="DfDZ5fbvpLFeXreUArm3-1" value="end" style="ellipse;whiteSpace=wrap;html=1;rounded=0;" vertex="1" parent="WIyWlLk6GJQsqaUBKTNV-1">
          <mxGeometry x="350" y="-50" width="80" height="60" as="geometry" />
        </mxCell>
        <mxCell id="DfDZ5fbvpLFeXreUArm3-3" value="min&amp;nbsp;" style="rounded=0;whiteSpace=wrap;html=1;" vertex="1" parent="WIyWlLk6GJQsqaUBKTNV-1">
          <mxGeometry x="660" y="140" width="80" height="50" as="geometry" />
        </mxCell>
      </root>
    </mxGraphModel>
  </diagram>
</mxfile>
